# xmcd
#
# Track frame offsets:
#	150
#	9145
#	26470
#	48695
#	80770
#	106520
#	147865
#	175475
#	212290
#	254995
#	280275
#
# Disc length: 4117 seconds
#
# Revision: 1
# Processed by: cddbd v1.5.1PL2 Copyright (c) Steve Scherf et al.
# Submitted via: EasyCDDAExtractor 9.0.0.1
#
DISCID=9410130b
DTITLE=Tony Martin - Club B 2 Moscow 13-11-05 Disc 1
DYEAR=2005
DGENRE=Hard Rock
TTITLE0=Intro
TTITLE1=The Lawmaker
TTITLE2=I Witness
TTITLE3=Eternal Idol
TTITLE4=The Hand That Rock The Cradle
TTITLE5=Battle Of Tyr - Odin's Court - Valhalla
TTITLE6=Children Of The Sea
TTITLE7=When Death Calls
TTITLE8=Dying For Love
TTITLE9=Scream
TTITLE10=The Shining
EXTD=
EXTT0=
EXTT1=
EXTT2=
EXTT3=
EXTT4=
EXTT5=
EXTT6=
EXTT7=
EXTT8=
EXTT9=
EXTT10=
PLAYORDER=
